<svg width="225" height="225" viewBox="0 0 225 225" fill="none" xmlns="http://www.w3.org/2000/svg">
<rect width="225" height="225" rx="5" fill="#587D52"/>
<path d="M55.904 174.592C52.7467 174.592 49.9733 174.336 47.584 173.824C45.1947 173.312 43.104 172.075 41.312 170.112C39.6053 168.149 38.752 165.12 38.752 161.024C38.752 155.307 40.4587 147.627 43.872 137.984C47.3707 128.341 51.936 118.656 57.568 108.928C53.3013 109.184 49.9307 109.824 47.456 110.848C44.9813 111.872 43.36 113.451 42.592 115.584C42.9333 115.584 43.2747 116.011 43.616 116.864C44.0427 117.717 44.256 118.613 44.256 119.552C44.256 121.088 43.5733 122.325 42.208 123.264C40.8427 124.117 39.136 124.544 37.088 124.544C34.6987 124.544 32.7787 123.904 31.328 122.624C29.8773 121.344 29.152 119.509 29.152 117.12C29.152 114.219 30.2613 111.573 32.48 109.184C34.784 106.795 37.9413 104.917 41.952 103.552C45.9627 102.101 50.4 101.376 55.264 101.376C57.056 101.376 59.2747 101.504 61.92 101.76C68.9173 90.6667 76.2987 81.6213 84.064 74.624C91.9147 67.5413 99.3813 64 106.464 64C110.56 64 113.931 64.5973 116.576 65.792L96.48 160H78.048L87.904 113.536C84.7467 112.085 81.8453 111.019 79.2 110.336C76.5547 109.653 73.7387 109.184 70.752 108.928C65.888 119.424 61.8773 130.176 58.72 141.184C55.648 152.107 54.112 160.853 54.112 167.424C54.112 170.667 54.7093 173.056 55.904 174.592ZM96.48 73.088C92.8107 75.0507 88.9707 78.72 84.96 84.096C81.0347 89.3867 77.1947 95.8293 73.44 103.424C79.584 104.619 84.7893 106.112 89.056 107.904L96.48 73.088ZM151.772 75.264H150.236C142.641 75.264 136.711 77.184 132.444 81.024C128.263 84.7787 126.172 91.4773 126.172 101.12C126.172 104.277 126.471 106.496 127.068 107.776C127.665 108.971 127.964 109.653 127.964 109.824C123.356 109.824 119.9 108.885 117.596 107.008C115.377 105.045 114.268 101.845 114.268 97.408C114.268 91.3493 115.761 85.8453 118.748 80.896C121.735 75.8613 126.471 71.808 132.956 68.736C139.527 65.664 147.847 64.128 157.916 64.128C163.548 64.128 169.607 64.64 176.092 65.664C181.553 66.6027 186.417 67.072 190.684 67.072C196.145 67.072 201.095 66.176 205.532 64.384C205.361 69.9307 203.953 74.0267 201.308 76.672C198.663 79.3173 194.737 80.64 189.532 80.64C186.801 80.64 184.071 80.4267 181.34 80C178.609 79.5733 174.727 78.848 169.692 77.824L152.028 160H133.596L151.772 75.264Z" fill="white"/>
</svg>
