<?xml version="1.0" standalone="no"?>
<!DOCTYPE svg PUBLIC "-//W3C//DTD SVG 20010904//EN"
 "http://www.w3.org/TR/2001/REC-SVG-20010904/DTD/svg10.dtd">
<svg version="1.0" xmlns="http://www.w3.org/2000/svg"
 width="360.000000pt" height="240.000000pt" viewBox="0 0 360.000000 240.000000"
 preserveAspectRatio="xMidYMid meet">
<metadata>
Created by potrace 1.10, written by Peter Selinger 2001-2011
</metadata>
<g transform="translate(0.000000,240.000000) scale(0.050000,-0.050000)"
fill="#587d52" stroke="none">
<path d="M5625 4290 c5 -44 -4 -125 -19 -180 -133 -480 -144 -565 -106 -800
70 -437 533 -882 780 -750 27 14 57 12 104 -8 210 -89 348 -140 380 -137 68 5
53 -28 -33 -70 l-86 -42 -69 46 c-200 137 -360 107 -403 -73 -14 -57 66 -50
144 11 21 16 37 11 64 -24 32 -38 44 -42 80 -23 23 13 48 18 54 12 6 -7 -1
-12 -17 -13 -20 0 -18 -6 7 -21 19 -11 44 -15 54 -9 10 7 46 -18 80 -54 63
-68 44 -100 -34 -57 -90 47 -252 52 -227 6 14 -26 34 -38 52 -31 17 6 30 0 30
-13 0 -16 -17 -20 -53 -11 -48 12 -51 10 -27 -19 15 -18 44 -28 65 -23 44 12
235 -69 273 -115 32 -38 19 -40 -77 -9 -143 46 -181 62 -181 79 0 10 -8 18
-18 18 -10 0 -16 -15 -14 -32 6 -40 85 -86 147 -87 31 -1 53 -19 68 -56 18
-45 24 -49 34 -21 16 42 38 28 101 -62 36 -52 40 -65 15 -55 -18 7 -46 18 -63
25 -16 7 -30 3 -30 -8 0 -11 14 -25 30 -31 38 -15 39 -46 1 -46 -16 0 -35 25
-42 56 -7 32 -20 57 -31 57 -32 0 -19 -53 26 -111 37 -46 38 -54 10 -43 -46
17 -43 -9 8 -63 41 -44 73 -175 38 -153 -11 7 -53 63 -94 126 -120 181 -128
189 -158 148 -14 -19 -21 -54 -15 -79 7 -26 2 -45 -11 -45 -12 0 -22 -14 -22
-31 0 -48 -34 -16 -45 43 -11 55 22 188 46 188 9 0 11 -18 5 -40 -12 -46 24
-55 41 -10 18 46 -304 496 -344 480 -17 -7 -26 -6 -19 1 14 14 -2 39 -87 131
-138 148 -414 14 -364 -177 8 -29 -4 -37 -57 -41 -121 -7 -226 -28 -256 -51
-16 -12 -23 -14 -15 -4 8 9 -35 48 -95 86 -129 80 -124 61 -51 177 33 52 70
127 83 166 13 40 62 163 109 273 163 385 158 441 -31 351 -95 -46 -179 -147
-97 -117 15 6 25 19 23 31 -3 11 8 25 25 31 34 14 35 11 10 -54 -10 -27 -37
-55 -60 -63 -22 -7 -41 -22 -41 -33 0 -10 7 -15 15 -10 30 19 83 -38 64 -68
-15 -24 -18 -23 -19 5 0 23 -11 31 -30 23 -16 -6 -30 -26 -30 -44 0 -19 -18
-45 -41 -59 -22 -14 -36 -33 -29 -43 6 -10 -6 -30 -27 -45 -35 -25 -35 -28 -2
-62 24 -25 35 -28 34 -10 -3 71 6 94 36 83 21 -8 24 -19 10 -36 -12 -14 -15
-30 -8 -37 17 -17 -33 -76 -54 -63 -9 5 -23 -1 -31 -14 -9 -14 -6 -18 9 -9 13
8 23 5 23 -7 0 -12 -22 -32 -48 -44 -50 -22 -52 -34 -17 -117 11 -27 16 -58
10 -67 -6 -10 2 -25 17 -35 18 -11 19 -18 5 -18 -13 0 -50 36 -83 81 -53 71
-60 76 -70 39 -10 -40 173 -209 301 -277 59 -32 57 -51 -9 -81 -40 -18 -57
-19 -62 -3 -77 231 -438 266 -493 48 -19 -75 -5 -77 100 -15 l95 55 51 -58
c28 -33 45 -43 37 -24 -7 19 -3 35 8 35 11 0 14 11 6 25 -8 15 -7 18 4 8 10
-9 18 -27 18 -40 0 -12 23 -26 50 -30 50 -7 79 -34 79 -73 0 -13 -5 -13 -14 0
-18 25 -179 37 -192 14 -6 -8 14 -17 43 -20 70 -6 93 -32 55 -63 -25 -21 -37
-21 -61 -1 -26 21 -29 20 -19 -5 16 -42 106 -63 141 -33 22 18 28 17 28 -2 0
-14 16 -39 35 -54 31 -26 31 -28 2 -19 -61 19 -59 -14 3 -40 33 -14 60 -34 60
-45 0 -14 -15 -14 -45 -1 -25 11 -61 25 -80 32 -19 6 -35 20 -35 29 0 10 -25
18 -55 17 -53 0 -53 -2 -16 -30 21 -16 55 -29 75 -29 20 0 36 -9 36 -20 0 -11
-10 -20 -21 -20 -12 0 -16 -9 -8 -21 7 -12 40 -18 73 -15 46 5 68 -6 93 -43
32 -47 31 -48 -7 -33 -87 34 -176 39 -166 10 5 -15 30 -31 56 -35 66 -9 134
-58 146 -104 13 -50 -10 -50 -56 1 -20 22 -48 40 -63 40 -14 0 14 -42 63 -94
50 -51 90 -103 90 -115 0 -11 -9 -8 -19 8 -10 17 -25 24 -33 16 -7 -8 1 -36
19 -64 18 -27 33 -55 33 -62 0 -18 -84 87 -160 201 -102 152 -442 572 -472
584 -15 5 -69 -14 -121 -43 -72 -40 -98 -46 -110 -27 -25 42 35 83 117 80 l76
-2 -47 39 c-171 142 -374 -56 -276 -269 l49 -109 -57 -24 c-32 -13 -78 -41
-103 -63 l-46 -40 -6 52 c-4 29 -15 52 -25 52 -30 0 -22 -93 9 -119 24 -19 14
-37 -60 -105 -48 -44 -107 -112 -131 -151 -24 -38 -64 -92 -90 -120 -26 -28
-47 -62 -47 -76 0 -13 -14 -30 -31 -37 -29 -11 -89 -125 -82 -155 11 -47 -163
-175 -187 -137 -10 17 -18 14 -27 -9 -20 -53 40 -59 107 -11 34 25 69 38 76
31 8 -8 -2 -26 -21 -40 -19 -14 -35 -32 -35 -41 0 -8 11 -6 25 6 25 21 36 24
77 24 14 0 17 19 9 51 -17 68 26 184 72 196 58 15 62 -20 13 -105 -52 -91 -44
-112 33 -83 29 12 102 21 161 21 157 0 230 37 192 98 -14 21 -25 16 -52 -25
-28 -42 -50 -53 -112 -53 -81 0 -105 26 -43 47 19 7 65 29 101 51 65 38 201 6
173 -40 -5 -7 12 -19 36 -26 l45 -13 -47 -26 c-47 -27 -47 -27 -5 -38 42 -11
60 -73 22 -77 -31 -4 -49 -10 -170 -57 -22 -8 -107 -18 -190 -21 -82 -4 -172
-7 -200 -9 -27 -1 -60 -8 -73 -16 -13 -9 -29 -4 -35 10 -8 18 -18 14 -36 -14
-130 -195 -363 -135 -430 111 -24 88 -334 340 -518 422 -48 21 -213 135 -248
171 -5 5 11 3 38 -5 34 -10 43 -8 32 10 -26 42 71 -19 123 -77 49 -55 48 -9
-1 55 -17 22 -15 26 7 19 16 -5 46 -41 67 -78 21 -38 47 -78 58 -89 28 -27 1
66 -37 125 -15 25 -25 45 -21 45 28 0 137 -69 153 -96 18 -30 22 -29 33 11 14
51 48 61 48 15 0 -16 9 -30 20 -30 11 0 20 -14 20 -32 0 -20 11 -28 29 -21 22
8 28 -7 26 -67 -2 -52 10 -92 36 -122 24 -28 28 -39 9 -28 -16 9 5 -21 49 -67
85 -90 107 -87 162 20 136 262 -179 479 -751 516 -148 9 -295 27 -325 39 -76
29 -70 -1 17 -98 40 -44 102 -128 137 -187 227 -377 683 -713 791 -583 36 43
53 38 94 -31 92 -157 332 -211 380 -85 36 93 81 111 189 75 81 -27 142 -31
314 -20 117 7 241 14 275 16 39 1 87 -17 131 -51 90 -68 107 -68 69 1 -16 30
-69 141 -117 245 -67 146 -110 210 -183 274 -140 124 -211 141 -392 98 -46
-12 -46 -11 5 14 31 15 50 32 43 39 -37 37 304 400 359 383 32 -10 36 -6 25
24 -38 98 63 105 164 12 115 -108 324 -232 444 -264 134 -36 320 -126 410
-199 92 -74 109 -57 51 52 -27 51 -41 114 -41 189 0 115 -40 359 -92 557 -15
60 -28 115 -28 122 0 13 156 79 186 79 8 0 14 -13 14 -30 0 -16 9 -30 20 -30
11 0 20 21 20 47 0 41 12 49 85 60 47 7 105 18 130 25 28 8 45 4 45 -11 0
-127 392 -482 720 -652 187 -98 286 -169 384 -275 104 -114 134 -116 87 -4
-37 89 -38 116 -20 410 20 327 -47 622 -173 757 l-40 43 56 22 c95 36 166 45
166 21 0 -40 35 -25 46 20 11 40 -30 107 -51 85 -6 -5 -44 13 -85 41 -42 28
-165 79 -274 112 -201 62 -279 124 -274 219 1 20 4 22 11 5 6 -14 22 -25 36
-25 13 0 41 -18 61 -40 165 -183 352 155 261 471 -102 350 -435 752 -731 883
-66 28 -200 145 -200 174 -1 12 -19 45 -42 72 l-40 50 7 -80z m175 -282 c0
-15 9 -28 20 -28 11 0 20 9 20 20 0 11 10 20 23 20 15 0 18 -26 9 -80 -8 -49
-5 -80 8 -80 11 0 19 -7 18 -15 -2 -8 -1 -33 0 -55 5 -71 44 19 47 110 6 135
39 99 65 -70 9 -53 7 -71 -6 -53 -33 47 -45 -6 -31 -137 15 -146 45 -122 69
57 8 59 20 111 25 117 21 21 53 -18 53 -65 0 -27 9 -49 20 -49 26 0 25 43 -1
111 -31 82 -9 81 48 -2 56 -83 58 -274 3 -514 -15 -63 -19 -115 -11 -115 21 0
80 215 83 301 2 38 7 53 12 34 14 -55 43 -41 61 29 23 86 49 89 95 11 38 -63
56 -181 25 -162 -8 5 -15 1 -15 -10 0 -11 11 -25 25 -31 20 -10 20 -14 0 -24
-30 -14 -34 -88 -4 -88 11 0 25 14 32 30 19 51 42 33 51 -38 4 -41 -1 -64 -13
-60 -13 5 -20 -30 -18 -92 1 -55 -4 -100 -11 -100 -30 0 -58 47 -47 77 11 28
9 28 -19 2 -18 -16 -28 -36 -23 -44 6 -9 -31 -57 -82 -107 -78 -78 -93 -86
-103 -55 -7 21 -82 204 -168 407 -234 554 -293 702 -317 790 l-21 80 39 -47
c21 -26 39 -60 39 -75z m-47 -158 c6 -16 20 -24 31 -17 13 7 15 -4 7 -28 -8
-26 0 -53 21 -74 18 -18 27 -38 21 -45 -21 -21 -70 36 -77 89 -3 29 -19 56
-36 62 -26 8 -26 5 -2 -25 20 -23 22 -40 7 -55 -30 -30 -52 14 -37 74 14 55
47 65 65 19z m-21 -195 c33 -2 88 -44 88 -67 0 -13 20 -38 45 -55 44 -32 44
-32 -14 -11 -33 11 -71 30 -85 42 -19 15 -26 15 -26 -1 0 -12 20 -32 45 -45
25 -14 57 -41 71 -62 15 -20 37 -31 50 -23 18 9 18 6 0 -13 -20 -21 -30 -21
-54 -1 -17 14 -41 21 -55 17 -13 -5 9 -24 48 -43 78 -36 171 -138 138 -149
-11 -3 -41 6 -67 22 -25 16 -68 35 -96 41 -51 12 -231 168 -214 186 5 5 24 -6
42 -23 46 -47 41 1 -10 83 -46 74 -32 85 43 33 l49 -35 -36 55 c-20 30 -30 65
-22 77 9 15 17 14 28 -3 8 -13 22 -24 32 -25z m65 -415 c12 0 23 9 23 19 0 39
57 -3 80 -60 13 -32 33 -56 45 -53 11 2 24 -6 28 -18 12 -33 -58 -27 -99 9
-33 28 -35 28 -23 -4 8 -18 57 -53 110 -75 110 -48 153 -106 63 -87 -49 10
-48 8 11 -19 87 -40 82 -54 -10 -28 -129 35 -365 213 -365 275 0 18 -11 45
-25 59 -20 22 -17 24 20 13 30 -9 45 -5 45 11 0 16 12 13 37 -9 20 -18 47 -33
60 -33z m676 -330 c-9 -22 2 -30 39 -30 28 0 45 9 38 20 -7 11 -3 20 9 20 25
0 26 -20 3 -58 -24 -37 -167 -85 -189 -63 -23 23 1 61 38 61 16 0 29 18 29 40
0 22 10 40 22 40 12 0 17 -13 11 -30z m-383 -54 c28 -29 33 -43 15 -50 -14 -5
-25 -24 -25 -41 0 -31 -15 -30 -18 0 -2 31 -52 70 -77 60 -16 -6 -25 10 -25
44 0 63 60 57 130 -13z m-111 -694 c24 -45 -93 -104 -120 -60 -10 16 -18 16
-28 0 -22 -35 -51 -25 -51 18 0 27 18 43 55 51 30 7 64 16 75 19 39 13 49 9
69 -28z m164 -71 c15 8 2 -11 -28 -44 -62 -66 -71 -107 -24 -107 17 0 27 7 22
16 -12 18 20 78 34 63 5 -5 1 -58 -8 -117 -21 -130 -61 -187 -54 -77 3 40 -4
74 -15 74 -11 1 -21 -17 -22 -40 -5 -78 -44 -90 -58 -16 -24 127 65 330 111
255 8 -13 26 -16 42 -7z m109 -161 c-9 -37 -5 -50 18 -50 16 0 30 -13 30 -30
0 -16 -10 -30 -21 -30 -13 0 -16 -17 -9 -40 7 -22 5 -40 -4 -40 -9 0 -28 -28
-43 -61 -15 -34 -31 -58 -34 -54 -19 18 -12 251 8 300 28 70 72 74 55 5z
m-1562 -170 c-5 -9 1 -20 14 -25 18 -6 16 -25 -8 -76 -17 -38 -32 -98 -32
-133 -1 -36 -10 -80 -21 -99 -13 -25 -16 -7 -8 59 12 106 -23 132 -45 34 -14
-65 -38 -75 -80 -33 -64 64 48 280 148 287 23 2 38 -4 32 -14z m1670 -28 c0
-27 5 -63 12 -80 8 -21 1 -32 -21 -32 -21 0 -28 -9 -18 -25 12 -20 8 -20 -16
0 -17 13 -36 19 -42 13 -17 -17 4 74 30 127 28 59 55 57 55 -3z m-1544 -180
c6 -62 11 -71 35 -51 33 27 38 -15 16 -148 -15 -89 -46 -61 -47 41 0 49 -7 62
-30 53 -16 -6 -25 -19 -19 -28 14 -23 -11 -119 -31 -119 -29 0 -31 152 -4 248
32 111 71 113 80 4z m160 -204 c-4 -68 -22 -86 -46 -48 -19 30 10 142 32 129
11 -7 17 -43 14 -81z m-1836 -483 c0 -45 -18 -26 -60 60 l-42 85 51 -60 c28
-33 51 -71 51 -85z m-460 -15 c58 -13 60 -16 26 -40 -20 -15 -39 -19 -43 -9
-3 11 -23 19 -43 19 -41 0 -71 66 -48 103 10 16 20 10 30 -18 9 -24 41 -47 78
-55z m1353 -16 c4 -4 -29 -24 -73 -44 -94 -43 -115 -34 -60 25 34 37 105 47
133 19z m-1183 -93 c50 -12 54 -17 24 -30 -34 -15 -34 -17 0 -43 40 -30 21
-34 -71 -15 -35 6 -63 24 -63 40 0 15 -9 27 -20 27 -11 0 -20 9 -20 20 0 22
59 23 150 1z m106 -179 c11 -32 -71 -12 -113 28 -23 21 -16 23 38 12 36 -7 70
-25 75 -40z"/>
<path d="M6123 3570 c-45 -212 -47 -230 -26 -230 26 0 68 200 59 284 -6 57
-10 50 -33 -54z"/>
<path d="M6344 3456 c-13 -13 -24 -40 -24 -59 0 -19 -8 -40 -18 -46 -9 -6 -23
-40 -30 -76 -7 -36 -26 -91 -42 -123 -38 -73 -25 -90 24 -31 20 24 51 59 68
76 29 29 54 112 61 203 1 17 11 41 22 55 26 33 -28 34 -61 1z"/>
<path d="M4613 1670 c-35 -26 -31 -70 6 -70 15 0 46 82 35 92 -2 3 -21 -7 -41
-22z"/>
<path d="M5173 3419 c-75 -32 -146 -59 -156 -59 -20 0 -173 -100 -243 -159
-107 -90 -253 -402 -253 -541 0 -326 380 -517 463 -233 13 46 36 103 51 126
37 59 37 130 -4 309 -40 179 -35 295 13 325 48 30 61 9 70 -112 12 -159 26
-211 45 -175 9 17 9 87 -1 157 -15 102 -12 132 12 156 34 34 39 67 10 67 -11
0 -20 -13 -20 -30 0 -16 -14 -30 -31 -30 -26 0 -26 7 5 48 20 26 44 43 54 37
10 -6 30 5 45 25 36 50 54 27 27 -33 -16 -33 -16 -79 -3 -148 l19 -99 -1 93
c-2 127 36 216 86 202 31 -7 39 1 39 39 0 26 11 59 24 72 47 47 -110 24 -251
-37z m-293 -310 c0 -7 -9 -29 -21 -50 -15 -28 -14 -39 2 -39 15 0 20 -25 16
-66 -7 -53 -1 -67 29 -69 31 -2 35 7 23 60 -13 59 -12 61 20 28 42 -41 50
-209 12 -233 -21 -12 -19 -25 9 -63 l35 -47 -11 45 c-13 59 18 77 45 27 16
-30 14 -47 -9 -69 -17 -17 -30 -50 -30 -73 0 -65 -44 -39 -88 51 -43 89 -70
60 -31 -33 13 -32 19 -65 12 -72 -7 -6 -18 3 -25 21 -7 18 -26 33 -43 33 -24
0 -25 -6 -5 -30 14 -16 16 -30 6 -30 -24 0 -81 116 -98 199 -3 16 -11 50 -18
77 -13 54 4 124 31 124 10 0 13 -13 7 -28 -6 -15 -1 -34 11 -41 11 -7 22 -38
22 -67 2 -47 4 -49 17 -14 15 38 17 38 31 -7 24 -77 30 -38 8 58 -31 135 -34
244 -10 283 22 34 53 49 53 25z m-168 -546 c1 -18 9 -49 17 -69 25 -55 -2 -63
-37 -10 -17 27 -26 66 -19 92 13 49 36 41 39 -13z"/>
<path d="M5352 3231 c-21 -39 -34 -76 -28 -82 17 -16 79 90 72 123 -4 19 -21
3 -44 -41z"/>
<path d="M6823 3089 c-131 -167 -36 -494 223 -764 154 -160 154 -160 152 60
-1 174 -3 181 -26 115 -42 -115 -190 -88 -191 35 -1 72 82 184 149 202 92 24
78 81 -30 121 -110 40 -120 90 -20 98 122 10 131 19 78 76 -110 119 -266 145
-335 57z"/>
<path d="M4790 1904 l-60 -34 68 -6 c41 -4 74 4 85 20 41 64 0 73 -93 20z"/>
<path d="M7110 1426 c-100 -25 -106 -79 -10 -86 88 -7 100 -1 100 50 0 50 -12
55 -90 36z"/>
<path d="M1120 1384 c0 -9 38 -18 85 -19 65 -3 75 1 45 14 -51 23 -130 26
-130 5z"/>
<path d="M2826 966 c-19 -7 -19 -17 -1 -46 17 -28 30 -32 49 -17 46 39 12 84
-48 63z"/>
<path d="M4793 387 c-35 -36 -12 -66 37 -47 28 10 50 14 50 8 0 -17 -45 -97
-60 -108 -8 -5 -21 -32 -29 -60 -10 -36 -8 -42 6 -21 11 16 49 31 83 33 75 6
71 3 87 73 22 87 -113 182 -174 122z"/>
<path d="M4741 249 c-26 -14 -50 -44 -51 -66 -3 -38 -1 -38 42 -6 32 23 90
119 61 101 -2 -1 -25 -14 -52 -29z"/>
</g>
</svg>
